<mxfile host="app.diagrams.net" modified="2023-07-28T15:16:06.239Z" agent="Mozilla/5.0 (Windows NT 10.0; Win64; x64) AppleWebKit/537.36 (KHTML, like Gecko) Chrome/115.0.0.0 Safari/537.36" version="21.6.5" etag="KXj3R6dSrLgovsQkaLqL" type="github">
  <diagram name="PÃ¡gina-1" id="nfwToZvPLQ3YX3q_8tjX">
    <mxGraphModel>
      <root>
        <mxCell id="0" />
        <mxCell id="1" parent="0" />
      </root>
    </mxGraphModel>
  </diagram>
</mxfile>
